<svg width="285" height="285" viewBox="0 0 285 285" fill="none" xmlns="http://www.w3.org/2000/svg">
<path d="M132.845 0.267956C253.744 -6.85604 327.736 129.604 256.692 226.769C234.719 256.822 200.873 278.282 163.91 283.46C138.531 287.016 142.667 285.041 139.403 262.187L132.959 213.967L128.784 182.877C128.313 179.421 125.431 161.672 127.094 159.511C128.944 157.108 143.939 157.958 147.623 158.011C147.166 139.524 145.483 131.356 131.757 117.875C123.785 109.174 122.542 103.036 122.587 91.5639C122.625 81.9469 122.649 72.177 122.552 62.561L102.356 62.6219C102.22 73.6259 103.014 93.637 101.353 103.666C99.3083 116.013 80.8063 125.518 78.8173 141.228C76.9713 155.804 77.6903 172.021 77.7123 186.67L77.9913 269.486C68.1083 264.45 58.8583 258.258 50.4363 251.041C-46.3767 169.253 4.40828 10.798 132.845 0.267956ZM68.4383 252.412C68.3523 231.779 68.4343 211.146 68.6873 190.514C68.7553 169.345 64.6513 135.85 79.0163 119.372C93.2903 102.997 93.3733 106.252 93.4203 84.396C93.4543 75.022 93.4213 65.6479 93.3223 56.2749C93.1883 41.1459 90.5863 33.466 109.297 34.914C113.912 35.271 120.161 34.768 124.92 34.945C126.774 35.009 128.514 35.8519 129.714 37.2669C133.386 41.5159 131.885 64.311 131.805 71.562C131.715 80.584 131.063 91.642 132.387 100.547C133.08 105.21 138.094 110.706 141.335 113.897C154.867 127.092 156.65 139.804 156.533 157.987C163.888 157.675 214.568 157.17 218.936 158.59C220.598 160.677 220.256 165.863 219.946 168.468C217.215 191.416 214.271 214.317 211.066 237.202C210.141 243.814 209.144 250.819 208.973 257.46C213.734 254.94 221.435 248.965 225.597 245.482C246.32 228.141 260.984 207.458 268.939 181.554C279.399 147.431 275.719 110.537 258.726 79.1519C242.579 48.7369 212.701 25.1149 179.866 15.1799C167.667 11.4889 146.874 8.03695 134.094 9.73895C12.5823 21.5479 -34.5827 166.35 59.0013 245.625C61.9913 248.158 65.1593 250.271 68.4383 252.412ZM156.645 274.702C170.624 273.28 185.073 269.576 197.754 263.451C199.944 259.742 205.877 209.984 206.274 203.351C187.203 210.16 175.515 199.886 156.71 195.448L156.667 240.4C156.623 251.478 156.244 263.811 156.645 274.702ZM156.675 186.273C175.15 186.522 187.123 204.029 207.699 193.262C209.217 184.823 209.849 176.089 211.316 167.471C195.133 166.379 173.525 167.506 156.624 167.126L156.675 186.273ZM135.857 167.11C136.694 172.466 137.78 184.688 139.042 188.915C142.063 187.868 143.745 187.386 146.862 186.666L147.494 186.063C147.454 179.747 147.449 173.43 147.478 167.113C143.679 167.102 139.633 167.019 135.857 167.11ZM147.727 254C147.696 248.991 147.496 242.931 147.697 238.004C147.705 224.042 147.64 210.08 147.502 196.118L139.842 198.456C142.012 211.641 143.868 224.875 145.41 238.148C145.988 243.071 146.543 249.297 147.727 254ZM102.221 44.194L102.368 53.2769C109.114 53.1099 115.863 53.07 122.61 53.158L122.603 44.3489C115.695 44.1149 108.969 44.373 102.221 44.194Z" fill="#66C61C"/>
<path d="M188.329 78.814C193.117 83.104 207.361 109.585 208.631 116.953C210.74 129.195 201.725 138.434 189.701 140.069C185.068 140.056 179.388 138.642 175.641 135.786C158.064 122.392 178.331 92.422 188.329 78.814ZM177.749 123.54C180.95 128.385 182.897 130.005 188.839 130.649C196.623 129.289 199.887 124.886 198.963 117.431C198.518 113.845 190.707 97.896 188.552 95.966C183.276 104.127 176.743 113.469 177.714 123.223L177.749 123.54Z" fill="#66C61C"/>
<path d="M145.41 238.148L147.697 238.004C147.496 242.931 147.696 248.991 147.727 254C146.543 249.297 145.988 243.071 145.41 238.148Z" fill="#CEECF8" fill-opacity="0.0117647"/>
<path d="M100.287 123.461C102.333 124.921 104.759 128.49 106.3 130.61C95.5264 140.931 95.7604 146.92 95.8054 161.227C95.8294 168.788 95.7754 176.722 95.7764 184.318L95.8374 260.657C95.8404 262.689 96.1304 275.57 95.6394 276.655L94.8854 276.637C91.5064 275.408 89.7204 274.572 86.5154 272.925C87.0334 262.828 86.6884 249.861 86.6894 239.532L86.6844 178.396C86.6834 169.502 86.4594 160.083 86.8094 151.244C87.3154 138.442 90.9844 131.89 100.287 123.461Z" fill="#66C61C"/>
</svg>
